# xmcd CD database file
#
# Track frame offsets:
#	150
#	13272
#	26959
#	40472
#	54496
#	66511
#	81934
#	93818
#	107938
#	120847
#	134027
#	146868
#	162455
#	178568
#	194621
#	209186
#	226044
#	240248
#	254720
#	267921
#	283022
#	296653
#	308016
#
# Disc length: 4284 seconds
#
# Revision: 0
# Processed by: cddbd v1.5.2PL0 Copyright (c) Steve Scherf et al.
# Submitted via: CDex 1.51
#
DISCID=6810ba17
DTITLE=oscar peterson - Chronological_ 1949-1950
DYEAR=2001
DGENRE=Jazz
TTITLE0=oop bop sh bam
TTITLE1=sweet georgia brown
TTITLE2=sleepy time gal
TTITLE3=rockin' in rhythm
TTITLE4=fine and dandy
TTITLE5=my heart stood still
TTITLE6=somebody loves me
TTITLE7=at sundown
TTITLE8=debut
TTITLE9=they didn't believe me
TTITLE10=lover
TTITLE11=where or when
TTITLE12=three o'clock in the morning
TTITLE13=all the things you are
TTITLE14=oscar's blues
TTITLE15=tenderly
TTITLE16=little white lies
TTITLE17=in the middle of a kiss
TTITLE18=nameless
TTITLE19=two sleepy people
TTITLE20=tico tico
TTITLE21=get happy
TTITLE22=jumpin' with symphony sid
EXTD=YEAR: 2001
EXTT0=
EXTT1=
EXTT2=
EXTT3=
EXTT4=
EXTT5=
EXTT6=
EXTT7=
EXTT8=
EXTT9=
EXTT10=
EXTT11=
EXTT12=
EXTT13=
EXTT14=
EXTT15=
EXTT16=
EXTT17=
EXTT18=
EXTT19=
EXTT20=
EXTT21=
EXTT22=
PLAYORDER=
